<?xml version="1.0" encoding="utf-8"?>
<!-- Generator: Adobe Illustrator 19.1.0, SVG Export Plug-In . SVG Version: 6.00 Build 0)  -->
<svg version="1.1" id="Layer_1" xmlns="http://www.w3.org/2000/svg" xmlns:xlink="http://www.w3.org/1999/xlink" x="0px" y="0px"
	 width="1000px" height="1000px" viewBox="0 0 1000 1000" style="enable-background:new 0 0 1000 1000;" xml:space="preserve">
<style type="text/css">
	.st0{fill:#1EAF00;}
	.st1{fill:#8700BF;}
	.st2{fill:#FFDC0D;}
</style>
<g>
	<path class="st0" d="M628.2,542c-10.7,14.6-34.2,40.7-40.6,49.5c-6.4,8.7,42.3-94.4,37.5-178.7c0-0.7,0.1-1.5,0.3-2.1
		c2.3-6.3,13.2-48.1,13.2-83.3c0-34.6-7.4-76.9-9-85.7c-0.2-1-0.1-2.1,0.3-3c1.9-4.6,7.2-20.4,2.8-48.3
		c-5.2-33.2-43.5-106.6-78.5-134.8c-0.9-0.7-2.1-1.2-3.3-1.2c-21.5-0.4-75.9,12.3-85.5,15.4c-7.4,2-41.5,14.2-100.7,84.9
		c-0.5,0.6-0.9,1.4-1.1,2.1c-1.7,6.7-6.7,38,13.1,84.5c2.7,6.4-6.6,10.7-9.7,4.5c-1.1-2.3-2.1-4.5-2.8-6.6
		c-4.8-13.7-11.7-40.4-16.2-58.7c-1.3-5.3-8.8-5.5-10.3-0.2c-6.1,20.9-15.2,53.7-16.8,69.1c-2.3,23.4-10.7,73,1.9,102.2
		c0.2,0.5,0.4,1.1,0.4,1.7c0.3,2.8,4.6,7.7,3.1,13.5c-1.6,6.3-12.8,56.3-13.1,87.4c-0.3,31,12.9,126.9,33,179.1
		c0.1,0.2,0.2,0.5,0.3,0.7c1.9,3.4,17.9,31.3,37.6,54.1c13.3,15.3,29.8,33.6,41.2,46.6c4,4.5-1.3,11.1-6.6,8.2
		c-9.2-5.1-21.1-13.7-34.8-28c-9.4-9.9-17.4-20.1-23.9-29.5c-3.5-5-11.3-1.2-9.5,4.6l19.8,65.1c0.1,0.5,0.4,0.9,0.6,1.3
		c2.4,3.7,14.9,22.8,28.5,35.4c8.5,7.9,17.1,14.4,22.9,18.6c3.1,2.2,3,6.9-0.3,8.9c-5.6,3.5-12.8,9.7-17,19.9
		c-0.4,2.7,17.7-7.9,26.9-4.2c9.2,3.7,19.1,6.5,24.8,15.1c1,0.7-17.6-2.4-24.3,4.7c-2.5,2.6-4.3,6.3-5.6,10
		c-1.6,4.4,2.9,8.6,7.2,6.7c3.4-1.5,6.8-2.8,9.2-2.8c6-0.1,15.2-2.4,25.9,5.4c9.5,6.9,22.5,5.9,25.3,5.5c0.3,0,0.7-0.1,1-0.2
		l15.1-4.9l0,0c0,0,8.6-28.1,29.1-39.9c20.5-11.8,51.3-23.5,57.1-37.2c-1.1,1-14,5.6-26.7,7.2c-5.6,0.7-8.4-6.6-3.7-9.8
		c14.3-9.5,31.1-26.1,40.8-44.9c2.5-4.9-3.1-9.9-7.7-6.9c-23,15.3-43.6,26.3-58.9,32.6c-5.6,2.3-10.1-5-5.5-9
		c12-10.6,29-27.7,48.7-53.7c39.3-51.9,46.5-116.8,50.6-128.7c4.2-11.9,20-54,27.6-66.4C663.8,515.7,638.8,527.4,628.2,542z
		 M484.9,831.7c0,0-93-164.9-77.8-405C427,202.2,523.3,98.2,523.3,98.2l23.6-11.8c0,0-124.2,170.4-123,369.5
		c-3.9,103.2,20,240.1,63.4,342.7C487.3,798.6,486.8,830.1,484.9,831.7L484.9,831.7z"/>
	<path class="st1" d="M349.9,534.2c-0.3,16.4-1.7,49.6-1.7,49.6c-0.5,0.2-9.8-31.3-13.5-42.9c-10-31.4-20.9-63.4-37.9-91.7
		c-0.3-0.5-0.5-1.1-0.6-1.6c-4.1-21.7-11.5-44.4-20.8-64.8c-9.5-21-20.8-41.3-32.4-61.2c-0.4-0.7-0.6-1.6-0.7-2.5
		c-0.2-13.6-5.6-26.9-11.4-38.8c-15.6-32.4-51.7-71.2-85.1-86c-0.8-0.3-1.7-0.3-2.5,0c-20.4,9.4-40.2,27.3-55.8,43.6
		c-28,28.6-37.3,79.6-44.3,116.5c-0.1,0.8-0.2,1.6,0,2.4c4,25.5,19.4,49,36.5,67.4c3.8,4.1-0.3,12.1-4.5,8.3
		c-1.5-1.4-2.9-2.8-4.2-4.3c-11.3-13.5-21-28.5-30.4-43.4c-2.6-4.1-7.4-0.8-6.7,4.5c3.2,22.7,6.5,46.5,14,68.2
		c9.7,28.3,18.9,63.9,42.2,84.3c0.4,0.3,0.7,0.7,1,1.1c1.4,2.1,6,3.9,7.6,9.3c8,25.7,18.4,52.3,32.6,75.3
		c26,41.9,66.4,83.3,109,108.8c0.2,0.1,0.4,0.2,0.6,0.3c15.5,6.3,31.8,10.8,48.1,13.2c14.9,2.2,30.4,3.4,45.6,4.8
		c4.4,0.4,5.5,7.3,1.4,8.6c-10.5,3.2-21.5,3.7-32.3,3.2c-9.3-0.4-18.8-2.1-28-4.4c-4.5-1.1-6.1,5.8-2,8.4c15.3,9.7,30.7,19,46.3,28
		c0.3,0.2,0.7,0.3,1.1,0.4c10.9,2.6,22.5,4.4,33.5,3.6c7-0.5,14.2-1.5,21.2-3.1c2.7-0.6,5.3,2.1,5,5c-0.9,7.4,1.3,13.9,4,20.8
		c4.1-5.8,3.7-13.8,9.6-18.1c4.9-3.6,13.2-7.5,19.9-6.5c0.8-0.2-9.4,9-8.2,16.6c0.4,2.8,1.8,5.8,3.3,8.5c1.9,3.3,6.4,2.7,7.1-0.8
		c0.6-2.8,1.5-5.5,2.4-6.8c3.7-5.4,7.8-10.7,14.7-12.3c8.2-1.9,13.5-10,14.6-11.8c0.1-0.2,0.2-0.4,0.3-0.7c1.6-4.4,2.5-6.6,4.2-11
		c0,0,0,0,0,0c-6.3-10.6-10.7-24-8.3-36.2c2.9-14.4,13.5-34.5,8.5-49.4c-2.3,6.3-5.8,12.3-9.7,17.7c-2.4,3.3-7.7,1-6.9-3.2
		c2.7-14.9,1.7-30.6-2-44.8c-1-3.8-6.6-3.8-7.5,0.2c-3.7,16.2-7.6,32.6-13.5,48.1c-1.6,4.2-7.7,2.6-7.5-1.9
		c0.7-18.3-0.3-37-2.2-54.9c-3.8-35.8-21-66.8-31.9-99.9c-5.5-16.7-10.4-35.6-11.7-53.6C353.8,511.8,350.1,524.5,349.9,534.2z
		 M416.8,775.1c-108.2-28.4-197.7-122.3-245-217c-45.5-91-70.3-213.9-37.9-316c4.5-6.2,9-12.3,13.5-18.4
		c-28,114.4-13.9,246.2,46.9,347.6c45.3,79.9,119.4,150.3,205.3,184.8C405.4,762.1,412.5,768,416.8,775.1L416.8,775.1z"/>
	<path class="st2" d="M700.9,697c-12.4,2.3-37.9,8-37.9,8c-0.1-0.2,21.5-12.5,30.7-17.6c22.8-12.5,46.4-24.6,67.5-39.9
		c0.4-0.3,0.8-0.5,1.2-0.6c17.1-5.4,34.6-12.5,50.9-20.3c16.6-8,33-17,49.5-25.6c0.6-0.3,1.3-0.5,2.1-0.5c11-0.4,22.4-3.8,32.6-8.1
		c25.9-10.7,61.1-32.9,75.9-57c0.3-0.5,0.3-1.2,0-1.8c-8.6-16.4-24.3-31.5-38.9-43.3c-28.4-23-73.4-28.5-107.8-32.1
		c-0.7-0.1-1.5,0-2.2,0.1c-22.3,3.9-42.7,16.3-59,31.2c-3.4,3.1-10.9,1-7.8-2.4c1.1-1.2,2.3-2.4,3.6-3.4
		c11.6-9.6,24.5-17.9,37.5-25.5c3.6-2.1,0.3-5.4-4.5-4.5c-20.6,4-41.8,8.7-61.2,16.7c-24.3,10.1-54.7,21.6-71,43.3
		c-0.2,0.3-0.5,0.6-0.9,0.9c-1.7,1.4-2.7,5-7.2,7.2c-21.3,10.6-42.8,23.7-60.4,39.8c-30.3,27.7-58,68.2-69.3,108.2
		c0,0.2-0.1,0.3-0.1,0.5c-1.6,12.5-1.7,25.5,0.4,37.9c1.9,11.1,4.5,22.2,7.2,33.2c0.8,3.2-4,6.2-6,3.8c-5.2-6.2-8-13.9-10.3-21.2
		c-2.1-6.9-2.9-14.4-3.2-21c-0.2-3.5-5.9-2.3-6.9,1.5c-3.7,14-7,28-9.7,42.2c-0.1,0.3-0.1,0.6,0,0.9c0.9,8.3,2.7,16.8,6.2,24.3
		c2.6,5.5,5.8,10.3,8,13.3c1.2,1.6,0,4.3-2.2,5.2c-3.8,1.5-9.2,4.7-13.7,10.6c-0.8,1.6,11.4-3.4,15.6-0.4c4.2,3,9,5.6,10.3,11.1
		c0.4,0.5-9-3-14,0.7c-1.9,1.4-3.6,3.4-5,5.5c-1.7,2.5,0,5.3,2.7,4.5c2.1-0.7,4.2-1.2,5.5-1c3.3,0.4,8.6-0.2,12.9,5.2
		c3.8,4.8,10.9,5.4,12.5,5.5c0.2,0,0.4,0,0.6,0c3.5-0.5,5.3-0.7,8.8-1.1c0,0,0,0,0,0c5.1-7.7,13.6-15.5,22.7-17.6
		c10.8-2.5,27.2-1.6,36.5-8.9c-0.8,0.2-8.1,0-14.8-1.5c-3-0.7-2.6-4.9,0.4-5.6c11-2.6,21.8-7.1,31-13.6c2.5-1.7,1.2-5.5-1.8-5.1
		c-12.4,1.7-25,3.4-37.4,4c-3.4,0.2-3.8-4.4-0.5-5.7c13.2-4.9,26.4-10.6,39-16.5c24.5-11.6,45.1-30.3,67.4-43.9
		c11.4-7,25.2-13.5,38.7-17C717.8,696.3,708.7,695.6,700.9,697z M538.5,804.4c-10.8-91.1,50.8-180.9,119.6-229.6
		c73.8-52.3,181.4-79.4,272.7-51.4c6.7,4.2,9.9,6.4,16.4,10.8c-99.2-26.6-218.1-8.6-297.2,59.2C593,640.9,549.7,710.7,547.2,786.3
		C547.2,786.3,539.8,803.7,538.5,804.4L538.5,804.4z"/>
	<circle class="st2" cx="475.8" cy="817.1" r="98.1"/>
	<polygon class="st1" points="449,881 412,843.2 412,790 449,753 502.2,753 540,790 540,843.2 502.2,881 	"/>
</g>
</svg>
